<!--
  - Copyright (C) senko://digital - All Rights Reserved
  - Unauthorized copying of this file, via any medium is strictly prohibited
  - Proprietary and confidential
-->
<svg width="1640" height="230" viewBox="0 0 1640 230" fill="none" xmlns="http://www.w3.org/2000/svg">
<path d="M114.94 91.9176L78.3128 92.9068C77.9321 90.2688 76.8988 87.9331 75.2129 85.8996C73.527 83.8112 71.3244 82.19 68.6053 81.0358C65.9404 79.8268 62.8406 79.2222 59.3056 79.2222C54.683 79.2222 50.7402 80.1565 47.4771 82.0251C44.2685 83.8937 42.6913 86.4217 42.7457 89.6093C42.6913 92.0824 43.6702 94.2258 45.6825 96.0394C47.749 97.853 51.4199 99.3094 56.6952 100.409L80.8416 105.025C93.3499 107.443 102.65 111.455 108.741 117.061C114.886 122.667 117.986 130.086 118.04 139.319C117.986 148.002 115.43 155.559 110.372 161.989C105.369 168.419 98.5164 173.421 89.815 176.993C81.1135 180.51 71.1613 182.269 59.9582 182.269C42.0659 182.269 27.9533 178.559 17.6204 171.14C7.34182 163.665 1.46836 153.663 0 141.133L39.4011 140.143C40.2713 144.76 42.5282 148.277 46.1719 150.695C49.8156 153.114 54.4654 154.323 60.1214 154.323C65.2335 154.323 69.3938 153.361 72.6025 151.437C75.8111 149.514 77.4426 146.958 77.497 143.771C77.4426 140.913 76.1918 138.632 73.7445 136.928C71.2972 135.17 67.4632 133.796 62.2423 132.806L40.38 128.602C27.8173 126.294 18.4633 122.035 12.3179 115.824C6.17257 109.559 3.12707 101.59 3.18146 91.9176C3.12707 83.454 5.35681 76.227 9.87067 70.2366C14.3845 64.1912 20.8018 59.5747 29.1226 56.3871C37.4433 53.1995 47.2596 51.6057 58.5714 51.6057C75.5392 51.6057 88.9176 55.2055 98.7067 62.405C108.496 69.5496 113.907 79.3871 114.94 91.9176Z" fill="url(#paint0_linear_12_12)"/>
<path d="M196.251 182.269C183.144 182.269 171.833 179.658 162.315 174.437C152.853 169.161 145.565 161.66 140.453 151.932C135.395 142.149 132.867 130.526 132.867 117.061C132.867 103.981 135.423 92.5496 140.535 82.767C145.647 72.9295 152.853 65.2903 162.152 59.8495C171.452 54.3536 182.41 51.6057 195.027 51.6057C203.946 51.6057 212.104 53.0072 219.5 55.81C226.896 58.6129 233.286 62.7622 238.67 68.2581C244.054 73.7539 248.242 80.5412 251.233 88.6201C254.224 96.644 255.72 105.849 255.72 116.237V126.294H146.816V102.882H218.603C218.548 98.595 217.542 94.7754 215.584 91.4229C213.627 88.0705 210.935 85.46 207.508 83.5914C204.137 81.6679 200.248 80.7061 195.843 80.7061C191.384 80.7061 187.386 81.7228 183.851 83.7563C180.317 85.7348 177.516 88.4552 175.449 91.9176C173.383 95.325 172.295 99.1995 172.186 103.541V127.366C172.186 132.532 173.192 137.066 175.204 140.968C177.217 144.815 180.072 147.81 183.77 149.953C187.468 152.097 191.873 153.168 196.985 153.168C200.52 153.168 203.729 152.674 206.611 151.685C209.493 150.695 211.968 149.239 214.035 147.315C216.101 145.392 217.651 143.029 218.684 140.226L255.312 141.297C253.789 149.596 250.445 156.823 245.278 162.978C240.166 169.079 233.45 173.833 225.129 177.24C216.808 180.593 207.182 182.269 196.251 182.269Z" fill="url(#paint1_linear_12_12)"/>
<path d="M315.984 107.663V179.878H276.093V53.2545H314.026V76.5018H315.413C318.186 68.7527 322.918 62.6798 329.607 58.2832C336.296 53.8315 344.263 51.6057 353.509 51.6057C362.319 51.6057 369.96 53.6117 376.432 57.6237C382.958 61.5806 388.015 67.1314 391.605 74.276C395.248 81.3656 397.043 89.6643 396.989 99.172V179.878H357.098V107.086C357.152 100.051 355.385 94.5556 351.796 90.5986C348.261 86.6416 343.339 84.6631 337.03 84.6631C332.843 84.6631 329.145 85.5974 325.936 87.466C322.782 89.2796 320.335 91.8901 318.594 95.2975C316.908 98.7049 316.038 102.827 315.984 107.663Z" fill="url(#paint2_linear_12_12)"/>
<path d="M457.661 146.656L457.824 98.595H463.371L498.612 53.2545H543.805L491.433 118.215H480.91L457.661 146.656ZM421.686 179.878V11.0466H461.576V179.878H421.686ZM499.509 179.878L466.716 127.283L492.983 98.6774L545.599 179.878H499.509Z" fill="url(#paint3_linear_12_12)"/>
<path d="M611.411 182.269C598.25 182.269 586.938 179.548 577.475 174.108C568.067 168.612 560.806 160.973 555.694 151.19C550.637 141.352 548.108 129.949 548.108 116.978C548.108 103.953 550.637 92.5496 555.694 82.767C560.806 72.9295 568.067 65.2903 577.475 59.8495C586.938 54.3536 598.25 51.6057 611.411 51.6057C624.572 51.6057 635.856 54.3536 645.265 59.8495C654.727 65.2903 661.988 72.9295 667.045 82.767C672.157 92.5496 674.713 103.953 674.713 116.978C674.713 129.949 672.157 141.352 667.045 151.19C661.988 160.973 654.727 168.612 645.265 174.108C635.856 179.548 624.572 182.269 611.411 182.269ZM611.655 151.849C616.441 151.849 620.493 150.366 623.81 147.398C627.128 144.43 629.656 140.308 631.397 135.032C633.191 129.756 634.089 123.656 634.089 116.731C634.089 109.697 633.191 103.541 631.397 98.2652C629.656 92.9893 627.128 88.8674 623.81 85.8996C620.493 82.9319 616.441 81.448 611.655 81.448C606.706 81.448 602.519 82.9319 599.093 85.8996C595.721 88.8674 593.138 92.9893 591.343 98.2652C589.603 103.541 588.733 109.697 588.733 116.731C588.733 123.656 589.603 129.756 591.343 135.032C593.138 140.308 595.721 144.43 599.093 147.398C602.519 150.366 606.706 151.849 611.655 151.849Z" fill="url(#paint4_linear_12_12)"/>
<path d="M717.582 182.269C711.708 182.269 706.678 180.18 702.49 176.004C698.357 171.827 696.317 166.771 696.372 160.835C696.317 155.01 698.357 150.036 702.49 145.914C706.678 141.737 711.708 139.649 717.582 139.649C723.129 139.649 728.023 141.737 732.265 145.914C736.561 150.036 738.737 155.01 738.791 160.835C738.737 164.792 737.704 168.392 735.691 171.634C733.734 174.877 731.15 177.46 727.942 179.384C724.787 181.307 721.334 182.269 717.582 182.269ZM717.582 95.3799C711.708 95.3799 706.678 93.319 702.49 89.1971C698.357 85.0203 696.317 79.9367 696.372 73.9462C696.317 68.1207 698.357 63.147 702.49 59.0251C706.678 54.8483 711.708 52.7599 717.582 52.7599C723.129 52.7599 728.023 54.8483 732.265 59.0251C736.561 63.147 738.737 68.1207 738.791 73.9462C738.737 77.9032 737.704 81.503 735.691 84.7455C733.734 87.9881 731.15 90.5711 727.942 92.4946C724.787 94.4182 721.334 95.3799 717.582 95.3799Z" fill="url(#paint5_linear_12_12)"/>
<path d="M842.474 3.13262L788.634 205.269H754.617L808.457 3.13262H842.474Z" fill="url(#paint6_linear_12_12)"/>
<path d="M934.675 3.13262L880.835 205.269H846.818L900.658 3.13262H934.675Z" fill="url(#paint7_linear_12_12)"/>
<path d="M995.306 181.692C986.061 181.692 977.659 179.274 970.099 174.437C962.54 169.601 956.503 162.346 951.99 152.674C947.476 143.001 945.219 130.993 945.219 116.649C945.219 101.755 947.557 89.4994 952.234 79.8817C956.911 70.264 963.03 63.147 970.589 58.5305C978.203 53.914 986.387 51.6057 995.143 51.6057C1001.72 51.6057 1007.35 52.7599 1012.03 55.0681C1016.71 57.3214 1020.57 60.2342 1023.61 63.8065C1026.66 67.3787 1028.97 71.0884 1030.55 74.9355H1031.36V11.0466H1071.25V179.878H1031.77V159.351H1030.55C1028.86 163.253 1026.47 166.908 1023.37 170.315C1020.27 173.723 1016.38 176.471 1011.7 178.559C1007.08 180.648 1001.61 181.692 995.306 181.692ZM1009.17 150.283C1014.01 150.283 1018.15 148.909 1021.57 146.161C1025 143.358 1027.64 139.429 1029.49 134.373C1031.34 129.317 1032.26 123.381 1032.26 116.566C1032.26 109.642 1031.34 103.679 1029.49 98.6774C1027.69 93.6762 1025.05 89.8292 1021.57 87.1362C1018.15 84.4433 1014.01 83.0968 1009.17 83.0968C1004.23 83.0968 1000.04 84.4707 996.612 87.2186C993.185 89.9666 990.575 93.8411 988.78 98.8423C987.04 103.843 986.17 109.751 986.17 116.566C986.17 123.381 987.067 129.317 988.862 134.373C990.657 139.429 993.24 143.358 996.612 146.161C1000.04 148.909 1004.23 150.283 1009.17 150.283Z" fill="url(#paint8_linear_12_12)"/>
<path d="M1096.48 179.878V53.2545H1136.37V179.878H1096.48ZM1116.47 38.4982C1110.87 38.4982 1106.05 36.6296 1102.03 32.8925C1098 29.1004 1095.99 24.5388 1095.99 19.2079C1095.99 13.9319 1098 9.42533 1102.03 5.68818C1106.05 1.89606 1110.87 0 1116.47 0C1122.12 0 1126.94 1.89606 1130.91 5.68818C1134.93 9.42533 1136.94 13.9319 1136.94 19.2079C1136.94 24.5388 1134.93 29.1004 1130.91 32.8925C1126.94 36.6296 1122.12 38.4982 1116.47 38.4982Z" fill="url(#paint9_linear_12_12)"/>
<path d="M1220.17 230C1208.26 230 1198.06 228.324 1189.58 224.971C1181.1 221.619 1174.43 217.03 1169.59 211.204C1164.75 205.379 1161.84 198.784 1160.86 191.419L1198.63 189.276C1199.34 191.859 1200.65 194.112 1202.55 196.036C1204.51 197.959 1207.04 199.443 1210.14 200.487C1213.29 201.532 1216.99 202.054 1221.23 202.054C1227.92 202.054 1233.44 200.405 1237.79 197.108C1242.2 193.865 1244.4 188.177 1244.4 180.043V157.785H1243.01C1241.43 161.687 1239.04 165.177 1235.83 168.254C1232.62 171.332 1228.63 173.75 1223.84 175.509C1219.11 177.268 1213.67 178.147 1207.53 178.147C1198.39 178.147 1190.01 176.004 1182.4 171.717C1174.84 167.375 1168.78 160.67 1164.21 151.602C1159.7 142.479 1157.44 130.746 1157.44 116.401C1157.44 101.618 1159.78 89.4444 1164.45 79.8817C1169.13 70.264 1175.25 63.147 1182.81 58.5305C1190.42 53.914 1198.61 51.6057 1207.36 51.6057C1213.94 51.6057 1219.57 52.7599 1224.25 55.0681C1228.98 57.3214 1232.87 60.2342 1235.91 63.8065C1238.96 67.3787 1241.27 71.0884 1242.85 74.9355H1243.99V53.2545H1283.72V180.373C1283.72 191.09 1281.05 200.13 1275.72 207.495C1270.39 214.859 1262.94 220.437 1253.37 224.229C1243.8 228.076 1232.73 230 1220.17 230ZM1221.39 148.799C1226.23 148.799 1230.37 147.508 1233.79 144.925C1237.22 142.342 1239.86 138.632 1241.71 133.796C1243.56 128.959 1244.48 123.161 1244.48 116.401C1244.48 109.532 1243.56 103.624 1241.71 98.6774C1239.91 93.6762 1237.27 89.8292 1233.79 87.1362C1230.37 84.4433 1226.23 83.0968 1221.39 83.0968C1216.44 83.0968 1212.26 84.4707 1208.83 87.2186C1205.4 89.9666 1202.79 93.8411 1201 98.8423C1199.26 103.789 1198.39 109.642 1198.39 116.401C1198.39 123.161 1199.29 128.959 1201.08 133.796C1202.88 138.632 1205.46 142.342 1208.83 144.925C1212.26 147.508 1216.44 148.799 1221.39 148.799Z" fill="url(#paint10_linear_12_12)"/>
<path d="M1309.15 179.878V53.2545H1349.04V179.878H1309.15ZM1329.13 38.4982C1323.53 38.4982 1318.72 36.6296 1314.7 32.8925C1310.67 29.1004 1308.66 24.5388 1308.66 19.2079C1308.66 13.9319 1310.67 9.42533 1314.7 5.68818C1318.72 1.89606 1323.53 0 1329.13 0C1334.79 0 1339.6 1.89606 1343.57 5.68818C1347.6 9.42533 1349.61 13.9319 1349.61 19.2079C1349.61 24.5388 1347.6 29.1004 1343.57 32.8925C1339.6 36.6296 1334.79 38.4982 1329.13 38.4982Z" fill="url(#paint11_linear_12_12)"/>
<path d="M1445.16 53.2545V82.9319H1366.11V53.2545H1445.16ZM1382.67 22.9176H1422.56V140.061C1422.56 142.534 1422.94 144.54 1423.7 146.079C1424.52 147.563 1425.69 148.634 1427.21 149.294C1428.73 149.898 1430.55 150.201 1432.67 150.201C1434.2 150.201 1435.8 150.063 1437.49 149.789C1439.23 149.459 1440.53 149.184 1441.4 148.964L1447.44 178.065C1445.54 178.614 1442.84 179.301 1439.36 180.125C1435.94 180.95 1431.83 181.472 1427.05 181.692C1417.69 182.131 1409.67 181.032 1402.98 178.394C1396.35 175.701 1391.26 171.524 1387.73 165.864C1384.25 160.203 1382.56 153.086 1382.67 144.513V22.9176Z" fill="url(#paint12_linear_12_12)"/>
<path d="M1500.83 182.021C1492.84 182.021 1485.74 180.675 1479.54 177.982C1473.39 175.234 1468.53 171.112 1464.94 165.616C1461.4 160.066 1459.64 153.114 1459.64 144.76C1459.64 137.725 1460.86 131.79 1463.31 126.953C1465.75 122.117 1469.13 118.188 1473.42 115.165C1477.72 112.142 1482.67 109.861 1488.27 108.323C1493.87 106.729 1499.85 105.657 1506.22 105.108C1513.34 104.448 1519.08 103.761 1523.43 103.047C1527.78 102.277 1530.93 101.206 1532.89 99.8315C1534.9 98.4026 1535.91 96.3967 1535.91 93.8136V93.4014C1535.91 89.1697 1534.47 85.8996 1531.59 83.5914C1528.7 81.2832 1524.81 80.129 1519.92 80.129C1514.65 80.129 1510.4 81.2832 1507.19 83.5914C1503.99 85.8996 1501.95 89.0872 1501.08 93.1541L1464.29 91.8351C1465.37 84.141 1468.17 77.2712 1472.69 71.2258C1477.26 65.1255 1483.51 60.3441 1491.45 56.8817C1499.44 53.3644 1509.04 51.6057 1520.25 51.6057C1528.24 51.6057 1535.61 52.5675 1542.35 54.491C1549.1 56.3596 1554.97 59.1075 1559.97 62.7348C1564.98 66.3071 1568.84 70.7037 1571.56 75.9247C1574.33 81.1458 1575.72 87.1087 1575.72 93.8136V179.878H1538.19V162.237H1537.21C1534.98 166.523 1532.13 170.151 1528.65 173.118C1525.22 176.086 1521.17 178.312 1516.49 179.796C1511.87 181.28 1506.65 182.021 1500.83 182.021ZM1513.15 155.642C1517.45 155.642 1521.31 154.762 1524.73 153.004C1528.21 151.245 1530.99 148.827 1533.05 145.749C1535.12 142.616 1536.15 138.989 1536.15 134.867V122.832C1535.01 123.436 1533.63 123.986 1531.99 124.48C1530.42 124.975 1528.68 125.442 1526.77 125.882C1524.87 126.321 1522.91 126.706 1520.9 127.036C1518.89 127.366 1516.96 127.668 1515.11 127.943C1511.35 128.547 1508.15 129.481 1505.48 130.746C1502.87 132.01 1500.86 133.658 1499.44 135.692C1498.09 137.67 1497.41 140.033 1497.41 142.781C1497.41 146.958 1498.87 150.146 1501.81 152.344C1504.8 154.542 1508.58 155.642 1513.15 155.642Z" fill="url(#paint13_linear_12_12)"/>
<path d="M1640 11.0466V179.878H1600.11V11.0466H1640Z" fill="url(#paint14_linear_12_12)"/>
<defs>
<linearGradient id="paint0_linear_12_12" x1="1652.06" y1="-148.024" x2="-156.64" y2="-191.618" gradientUnits="userSpaceOnUse">
<stop stop-color="#FF8040"/>
<stop offset="1" stop-color="#522DF2"/>
</linearGradient>
<linearGradient id="paint1_linear_12_12" x1="1652.06" y1="-148.024" x2="-156.64" y2="-191.618" gradientUnits="userSpaceOnUse">
<stop stop-color="#FF8040"/>
<stop offset="1" stop-color="#522DF2"/>
</linearGradient>
<linearGradient id="paint2_linear_12_12" x1="1652.06" y1="-148.024" x2="-156.64" y2="-191.618" gradientUnits="userSpaceOnUse">
<stop stop-color="#FF8040"/>
<stop offset="1" stop-color="#522DF2"/>
</linearGradient>
<linearGradient id="paint3_linear_12_12" x1="1652.06" y1="-148.024" x2="-156.64" y2="-191.618" gradientUnits="userSpaceOnUse">
<stop stop-color="#FF8040"/>
<stop offset="1" stop-color="#522DF2"/>
</linearGradient>
<linearGradient id="paint4_linear_12_12" x1="1652.06" y1="-148.024" x2="-156.64" y2="-191.618" gradientUnits="userSpaceOnUse">
<stop stop-color="#FF8040"/>
<stop offset="1" stop-color="#522DF2"/>
</linearGradient>
<linearGradient id="paint5_linear_12_12" x1="1652.06" y1="-148.024" x2="-156.64" y2="-191.618" gradientUnits="userSpaceOnUse">
<stop stop-color="#FF8040"/>
<stop offset="1" stop-color="#522DF2"/>
</linearGradient>
<linearGradient id="paint6_linear_12_12" x1="1652.06" y1="-148.024" x2="-156.64" y2="-191.618" gradientUnits="userSpaceOnUse">
<stop stop-color="#FF8040"/>
<stop offset="1" stop-color="#522DF2"/>
</linearGradient>
<linearGradient id="paint7_linear_12_12" x1="1652.06" y1="-148.024" x2="-156.64" y2="-191.618" gradientUnits="userSpaceOnUse">
<stop stop-color="#FF8040"/>
<stop offset="1" stop-color="#522DF2"/>
</linearGradient>
<linearGradient id="paint8_linear_12_12" x1="1652.06" y1="-148.024" x2="-156.64" y2="-191.618" gradientUnits="userSpaceOnUse">
<stop stop-color="#FF8040"/>
<stop offset="1" stop-color="#522DF2"/>
</linearGradient>
<linearGradient id="paint9_linear_12_12" x1="1652.06" y1="-148.024" x2="-156.64" y2="-191.618" gradientUnits="userSpaceOnUse">
<stop stop-color="#FF8040"/>
<stop offset="1" stop-color="#522DF2"/>
</linearGradient>
<linearGradient id="paint10_linear_12_12" x1="1652.06" y1="-148.024" x2="-156.64" y2="-191.618" gradientUnits="userSpaceOnUse">
<stop stop-color="#FF8040"/>
<stop offset="1" stop-color="#522DF2"/>
</linearGradient>
<linearGradient id="paint11_linear_12_12" x1="1652.06" y1="-148.024" x2="-156.64" y2="-191.618" gradientUnits="userSpaceOnUse">
<stop stop-color="#FF8040"/>
<stop offset="1" stop-color="#522DF2"/>
</linearGradient>
<linearGradient id="paint12_linear_12_12" x1="1652.06" y1="-148.024" x2="-156.64" y2="-191.618" gradientUnits="userSpaceOnUse">
<stop stop-color="#FF8040"/>
<stop offset="1" stop-color="#522DF2"/>
</linearGradient>
<linearGradient id="paint13_linear_12_12" x1="1652.06" y1="-148.024" x2="-156.64" y2="-191.618" gradientUnits="userSpaceOnUse">
<stop stop-color="#FF8040"/>
<stop offset="1" stop-color="#522DF2"/>
</linearGradient>
<linearGradient id="paint14_linear_12_12" x1="1652.06" y1="-148.024" x2="-156.64" y2="-191.618" gradientUnits="userSpaceOnUse">
<stop stop-color="#FF8040"/>
<stop offset="1" stop-color="#522DF2"/>
</linearGradient>
</defs>
<script xmlns=""/></svg>