<svg width="32" height="32" viewBox="0 0 32 32" fill="none" xmlns="http://www.w3.org/2000/svg">
<g clip-path="url(#clip0_11_2)">
<path d="M28.66 32C20.1933 32 11.7267 32 3.26 32C3.18583 31.9633 3.10667 31.9742 3.0275 31.9683C2.65167 31.9383 2.31 31.7958 1.98083 31.6242C1.48917 31.3683 1.0775 31.015 0.7375 30.5792C0.41 30.1592 0.176667 29.6917 0.0566667 29.1708C0.0241667 29.0308 0.0308333 28.8867 0.0225 28.7442C0.0208333 28.7158 0.03 28.6825 0 28.6608C0 20.22 0 11.78 0 3.34C0.0358333 3.28417 0.0208333 3.22 0.0225 3.16083C0.0316667 2.77417 0.153333 2.4175 0.325 2.08C0.768333 1.20667 1.4375 0.573333 2.35417 0.205C2.63417 0.0925 2.92167 0.0308333 3.22083 0.0158333C3.26083 0.0133333 3.30583 0.05 3.34 0C11.8267 0 20.3133 0 28.8 0C28.8592 0.0641667 28.94 0.03 29.0075 0.035C29.1675 0.0475 29.3192 0.0883333 29.4683 0.139167C30.0775 0.344167 30.6 0.685833 31.0367 1.15583C31.4858 1.63917 31.7967 2.1975 31.945 2.84333C31.9767 2.98167 31.9692 3.12417 31.9775 3.265C31.9792 3.29167 31.9717 3.32083 31.9992 3.34C31.9992 11.78 31.9992 20.22 31.9992 28.66C31.9508 28.7267 31.97 28.8067 31.9708 28.8758C31.9733 29.1008 31.9183 29.3125 31.8433 29.5183C31.4908 30.4808 30.8533 31.195 29.9433 31.6625C29.6825 31.7967 29.4083 31.905 29.1133 31.9483C28.9867 31.9667 28.86 31.97 28.7333 31.9758C28.7067 31.9775 28.6792 31.9733 28.66 32Z" fill="#0081FF"/>
<path d="M19.6307 18.4926C19.394 18.7759 19.1574 19.1184 18.8624 19.3992C18.2624 19.9692 17.5124 20.2667 16.7149 20.4401C15.754 20.6492 14.7874 20.6217 13.8182 20.4909C12.6082 20.3284 11.5457 19.8384 10.6199 19.0559C9.84069 18.3967 9.28153 17.5726 8.88319 16.6359C8.47653 15.6809 8.26653 14.6768 8.15986 13.6518C8.00569 12.1701 8.07736 10.7001 8.52069 9.26842C8.88486 8.09258 9.43819 7.01842 10.2774 6.09925C11.2499 5.03342 12.4315 4.34008 13.8415 4.04925C14.6299 3.88675 15.4257 3.88675 16.2224 4.01592C17.639 4.24675 18.7332 4.97342 19.5349 6.15592C19.5557 6.18258 19.634 6.29925 19.634 6.29925C19.634 6.29925 19.634 5.90092 19.634 5.73008C19.6332 5.30008 19.634 4.35425 19.634 4.35425C19.634 4.35425 19.7249 4.35425 19.7465 4.35425C21.0199 4.35008 23.9107 4.35342 23.9107 4.35342C23.9107 4.35342 23.9099 4.51675 23.9099 4.71008C23.9099 10.0768 23.9174 15.4434 23.9057 20.8093C23.9024 22.5059 23.4232 24.0592 22.3357 25.3884C21.4899 26.4217 20.3982 27.1026 19.1482 27.5426C17.9315 27.9709 16.6732 28.1184 15.3915 28.0642C13.9907 28.0051 12.6424 27.7017 11.4124 27.0109C9.56069 25.9701 8.43569 24.4092 8.15653 22.2793C8.11903 21.9968 8.10986 21.7092 8.09903 21.4242C8.09819 21.4067 8.09319 21.3151 8.09319 21.3151C8.09319 21.3151 8.17986 21.3151 8.19819 21.3151C9.46819 21.3092 10.7382 21.3084 12.0082 21.3126C12.0232 21.3126 12.0832 21.3134 12.0832 21.3134C12.0832 21.3134 12.0824 21.3934 12.0824 21.4067C12.0957 22.1451 12.3007 22.8118 12.8132 23.3601C13.1957 23.7693 13.6682 24.0401 14.2049 24.1842C15.4515 24.5201 16.6707 24.4501 17.829 23.8526C18.8707 23.3151 19.529 22.4742 19.604 21.2817C19.6599 20.3826 19.6265 19.4767 19.6324 18.5742C19.6307 18.5292 19.6307 18.4826 19.6307 18.4926Z" fill="white"/>
<path d="M12.5641 12.485C12.5391 11.5025 12.6416 10.5375 13.0266 9.62252C13.4791 8.54836 14.2691 7.89419 15.4349 7.71586C16.2407 7.59252 17.0249 7.64502 17.7674 8.00502C18.5091 8.36502 18.9666 8.98002 19.2666 9.72502C19.5607 10.4542 19.7107 11.22 19.7216 12.0009C19.7316 12.6992 19.7291 13.4084 19.6216 14.0959C19.4057 15.4767 18.4474 16.7692 16.9774 17.1292C15.6366 17.4575 14.2532 16.9434 13.4541 15.8117C12.8924 15.0175 12.6332 14.1275 12.5657 13.1717C12.5507 12.9442 12.5641 12.7142 12.5641 12.485Z" fill="#0081FF"/>
</g>
<defs>
<clipPath id="clip0_11_2">
<rect width="32" height="32" fill="white"/>
</clipPath>
</defs>
</svg>
