<?xml version="1.0" standalone="no"?>
<!DOCTYPE svg PUBLIC "-//W3C//DTD SVG 20010904//EN"
 "http://www.w3.org/TR/2001/REC-SVG-20010904/DTD/svg10.dtd">
<svg version="1.0" xmlns="http://www.w3.org/2000/svg"
 width="1000.000000pt" height="1000.000000pt" viewBox="0 0 1000.000000 1000.000000"
 preserveAspectRatio="xMidYMid meet">
<metadata>
Created by potrace 1.14, written by Peter Selinger 2001-2017
</metadata>
<g transform="translate(0.000000,1000.000000) scale(0.100000,-0.100000)"
fill="#000000" stroke="none">
<path d="M4722 7613 c-13 -49 -25 -95 -27 -103 -5 -23 -151 -565 -196 -732
-22 -81 -42 -155 -44 -165 -2 -10 -27 -103 -55 -208 -29 -104 -69 -255 -90
-335 -21 -80 -55 -206 -75 -280 -20 -74 -39 -144 -42 -155 -6 -20 -138 -517
-175 -655 -11 -41 -22 -82 -24 -90 -6 -24 -21 -80 -39 -145 -9 -33 -18 -67
-20 -75 -8 -33 -62 -235 -141 -530 -57 -208 -105 -391 -109 -410 -2 -8 -17
-65 -34 -127 -17 -61 -40 -146 -52 -190 -12 -43 -25 -94 -30 -113 -5 -19 -12
-43 -14 -52 -3 -10 -7 -27 -10 -38 -2 -12 -22 -87 -44 -168 -42 -154 -46 -171
-136 -507 -30 -115 -58 -216 -60 -222 -3 -10 103 -13 509 -13 l513 0 32 123
c63 240 163 613 177 662 7 28 25 93 39 145 14 52 34 129 45 170 120 448 238
889 265 990 18 69 62 235 98 370 36 135 75 281 87 325 12 44 28 104 36 133 8
28 20 76 28 105 18 69 203 757 327 1222 55 204 102 379 104 390 3 11 41 155
86 320 44 165 87 325 94 355 8 30 17 63 20 73 7 16 -21 17 -507 17 l-513 0
-23 -87z"/>
<path d="M6976 7692 c-4 -7 -224 -824 -230 -857 -1 -5 -9 -35 -18 -65 -9 -30
-32 -116 -52 -190 -40 -154 -143 -538 -196 -735 -12 -44 -23 -87 -25 -95 -2
-8 -20 -76 -40 -150 -20 -74 -38 -142 -40 -150 -2 -8 -13 -51 -25 -95 -12 -44
-32 -118 -45 -165 -12 -47 -33 -121 -45 -165 -12 -44 -23 -87 -25 -95 -2 -8
-8 -35 -15 -60 -7 -25 -14 -52 -16 -60 -2 -8 -21 -80 -43 -160 -33 -123 -105
-389 -225 -840 -14 -52 -50 -189 -81 -305 -31 -115 -74 -275 -95 -355 -80
-300 -221 -825 -225 -837 -3 -10 103 -13 509 -13 l514 0 21 83 c25 97 47 178
181 677 55 206 103 382 105 391 2 9 24 95 50 190 26 96 48 181 50 189 2 8 16
60 31 115 98 365 310 1157 341 1275 20 78 106 399 243 910 11 41 31 116 44
165 43 155 257 959 261 975 2 8 17 67 35 130 17 63 33 123 35 134 4 16 25 92
41 149 5 16 -24 17 -505 17 -280 0 -512 -4 -515 -8z"/>
<path d="M2568 6405 c-2 -2 -27 -6 -56 -9 -160 -19 -337 -138 -427 -286 -61
-102 -79 -170 -79 -310 -1 -155 21 -234 93 -342 82 -122 190 -205 322 -248
104 -34 274 -35 370 -2 250 86 429 326 431 580 1 91 -4 127 -31 204 -61 177
-245 346 -429 393 -52 14 -186 27 -194 20z"/>
<path d="M2445 4111 c-206 -58 -382 -239 -430 -444 -13 -56 -15 -231 -3 -277
3 -8 8 -30 12 -49 25 -105 128 -246 240 -326 202 -144 502 -140 701 10 244
183 326 495 199 754 -41 83 -56 103 -134 179 -119 117 -263 174 -430 171 -53
-1 -122 -9 -155 -18z"/>
</g>
</svg>
